<?xml version="1.0" standalone="no"?>
<!DOCTYPE svg PUBLIC "-//W3C//DTD SVG 20010904//EN"
 "http://www.w3.org/TR/2001/REC-SVG-20010904/DTD/svg10.dtd">
<svg version="1.0" xmlns="http://www.w3.org/2000/svg"
 width="753.000000pt" height="1620.000000pt" viewBox="0 0 753.000000 1620.000000"
 preserveAspectRatio="xMidYMid meet">

<path fill="#f5f5f5" fill-rule="evenodd" d="M237.0 14.0L243.5 15.5L246.0 18.0L247.5 22.0L247.0 33.5L242.5 44.0L241.5 44.0L246.0 31.0L246.0 22.5L244.0 24.0L242.5 17.5L233.0 17.5L228.5 20.0L223.5 25.0L219.0 33.0L217.0 39.5L225.5 34.0L233.0 34.5L235.5 37.0L237.0 41.0L236.5 46.5L233.5 53.0L229.0 57.5L224.5 59.5L220.5 59.0L219.0 57.0L219.5 53.0L222.5 49.5L225.0 49.5L224.5 52.0L222.0 53.5L223.0 57.0L227.5 55.0L232.5 49.5L234.5 44.0L234.5 40.5L232.5 37.0L229.5 36.0L224.5 37.0L219.5 41.0L216.0 48.0L215.5 54.0L213.5 52.5L214.5 39.5L219.0 27.0L227.0 18.0L232.0 15.0L237.0 14.5ZM235.0 19.5L236.0 21.0L235.5 25.5L234.0 26.5L235.0 20.0ZM231.5 21.0L233.0 21.5L232.0 27.0L231.0 27.0L231.5 21.5ZM238.0 22.0L239.0 23.0L239.0 25.5L237.5 26.0L238.0 22.5ZM228.5 22.5L230.0 24.5L230.0 30.0L229.0 30.0L228.5 23.0ZM192.5 61.0L195.0 61.0L194.5 62.0L189.5 63.5L182.5 68.0L173.0 79.0L168.5 90.0L168.0 99.5L169.5 105.0L174.0 111.5L182.0 119.0L187.5 122.0L176.0 110.5L172.5 102.0L172.5 96.0L175.0 89.5L180.0 82.5L186.5 79.0L193.5 79.0L200.0 85.5L202.0 94.0L202.0 105.0L204.0 103.5L207.5 93.0L207.5 82.5L203.5 68.0L200.5 64.0L198.0 63.5L198.5 62.0L201.5 62.5L207.0 70.5L209.5 80.0L209.0 94.5L205.5 104.0L198.5 110.0L192.5 103.0L190.5 98.5L191.0 94.5L194.5 93.5L197.0 95.5L192.5 95.5L192.5 98.5L194.0 102.5L198.5 104.0L199.5 93.5L197.5 85.5L194.5 82.0L192.0 81.0L188.0 81.0L183.0 83.5L177.0 91.5L175.0 97.0L175.5 103.0L179.5 110.5L186.5 117.5L200.0 125.5L200.5 127.0L193.0 124.5L191.5 126.0L188.0 125.5L177.0 118.5L169.0 109.5L166.5 104.5L165.0 97.5L167.0 85.0L174.5 72.0L184.5 63.5L192.5 61.5ZM195.0 65.5L196.0 67.0L196.0 73.0L195.0 74.5L194.0 72.0L195.0 66.0ZM190.0 66.5L191.0 66.5L191.0 74.0L189.5 72.5L190.0 67.0ZM184.5 69.5L186.0 71.0L186.0 75.5L185.0 75.5L184.0 73.0L184.5 70.0ZM200.5 70.5L201.5 70.5L201.0 76.0L199.5 75.5L200.5 71.0ZM204.0 76.5L205.0 76.5L204.5 78.5L202.5 80.0L204.0 77.0ZM231.0 91.5L239.5 92.0L248.0 96.5L256.0 105.5L259.0 115.0L258.5 125.0L257.0 128.0L256.5 113.5L252.0 103.5L242.5 96.0L236.5 94.0L229.5 94.5L224.0 97.5L215.5 107.5L211.5 117.0L210.5 127.5L209.5 128.0L209.5 116.5L214.0 105.0L222.0 95.5L227.0 92.5L231.0 92.0ZM381.5 94.5L387.0 95.0L397.0 101.5L416.0 108.0L426.0 109.5L470.5 109.5L500.0 112.0L522.5 117.0L535.0 121.0L544.5 125.5L547.0 128.0L548.0 135.0L545.0 141.5L524.0 172.0L511.5 195.0L512.0 229.0L503.5 241.0L494.0 248.0L481.0 255.0L476.0 260.0L472.0 267.0L470.0 273.5L466.5 295.5L469.5 295.0L475.5 291.0L476.5 291.5L481.5 313.5L482.5 314.0L483.5 312.0L486.0 312.5L493.5 323.0L557.5 385.0L572.0 404.0L579.0 415.5L582.0 423.0L579.0 420.5L569.0 403.0L562.0 395.5L556.0 393.0L548.5 392.5L550.0 391.0L560.0 391.5L560.0 390.5L556.5 388.0L547.0 387.5L538.0 389.5L523.0 398.5L508.5 413.0L495.5 431.0L487.5 445.5L486.5 450.0L490.0 445.0L492.0 444.5L491.5 447.0L483.5 463.0L482.0 469.5L480.5 470.5L476.5 478.5L465.0 506.0L439.0 580.0L439.5 581.0L444.5 582.0L449.0 585.5L464.0 602.0L465.0 604.0L464.5 608.5L462.5 612.0L460.0 612.5L459.5 615.0L457.5 613.0L450.5 598.5L444.5 591.0L434.5 581.5L412.5 569.0L388.5 552.5L341.5 515.0L338.0 518.5L331.0 541.5L332.0 544.0L334.0 544.0L336.5 542.0L336.5 545.0L339.5 545.0L335.5 547.0L335.0 549.0L336.0 550.0L339.5 550.0L341.0 552.0L338.0 552.5L335.5 551.0L334.0 553.5L343.0 556.0L337.0 556.5L337.5 558.0L342.5 560.0L337.0 560.0L336.0 561.5L341.5 563.5L340.0 564.5L340.0 566.0L345.5 569.0L347.5 574.0L345.0 574.5L345.5 576.0L357.0 578.0L355.0 583.5L356.5 584.5L360.0 583.5L360.0 585.0L362.5 586.0L360.0 588.0L361.0 590.0L365.5 591.0L367.5 589.5L368.5 591.0L367.5 594.5L373.0 596.0L367.5 596.5L367.0 600.0L368.0 601.0L372.0 599.5L372.0 600.5L375.0 602.0L381.0 603.0L381.5 604.0L377.5 604.5L376.5 607.5L381.5 609.0L382.5 606.5L384.0 609.5L388.5 611.0L389.5 615.5L391.0 615.5L391.0 613.5L392.0 613.5L392.5 623.0L406.0 624.5L411.5 627.0L407.0 627.5L408.0 631.0L411.5 631.5L413.0 630.0L414.0 632.0L421.0 634.0L413.5 634.0L413.5 639.0L419.0 639.0L425.0 641.0L418.0 641.5L421.0 643.5L429.0 644.5L429.5 642.5L433.5 646.5L430.5 647.0L431.0 649.0L436.5 650.5L440.0 649.5L440.0 651.0L442.5 652.0L440.0 654.0L440.5 657.5L443.5 658.5L446.0 656.0L446.5 663.0L448.0 663.5L448.5 661.5L450.5 664.5L453.0 665.0L453.0 670.5L456.5 670.5L458.5 672.0L459.0 668.0L462.0 667.5L464.0 665.5L479.5 635.0L507.5 570.5L516.5 553.5L528.5 526.0L562.0 459.5L579.0 429.0L582.0 425.5L584.5 425.0L585.0 426.0L583.5 432.0L561.0 474.0L519.5 558.0L484.0 639.0L472.0 669.0L461.5 688.0L459.0 690.5L454.5 690.5L453.5 691.5L452.0 726.0L451.0 729.0L447.5 731.0L451.5 758.0L455.0 809.5L460.0 1043.5L466.5 1163.5L472.0 1228.0L479.5 1297.0L488.0 1361.0L494.5 1398.5L498.5 1433.5L498.0 1442.5L496.5 1442.0L496.0 1440.0L496.0 1430.5L494.5 1428.0L487.0 1430.5L477.0 1436.0L480.0 1472.0L475.0 1474.0L474.0 1476.5L475.0 1478.0L485.0 1478.0L487.5 1483.0L493.0 1504.5L494.5 1517.0L494.0 1525.5L486.5 1529.0L468.0 1533.5L460.0 1537.5L447.5 1546.5L440.0 1550.0L428.0 1553.5L421.0 1554.5L400.5 1553.5L391.0 1549.5L388.0 1544.5L388.5 1538.0L392.0 1534.5L424.0 1518.5L444.0 1504.5L457.0 1493.5L459.0 1490.0L459.0 1483.0L460.5 1477.5L464.5 1473.5L465.0 1471.0L464.0 1456.5L462.0 1443.0L438.0 1454.5L436.0 1454.0L433.5 1446.0L415.0 1365.5L369.5 1153.5L333.0 956.5L332.0 1064.5L334.5 1187.0L338.5 1262.0L347.0 1365.5L349.5 1422.0L351.5 1431.5L365.5 1432.0L367.0 1433.0L367.0 1435.0L365.5 1436.0L341.0 1437.5L343.5 1468.0L346.0 1469.5L346.5 1472.0L350.0 1475.0L351.5 1482.0L352.0 1512.5L351.0 1517.5L349.0 1520.0L320.0 1523.5L312.0 1526.0L290.5 1536.0L273.5 1538.0L261.0 1537.5L246.0 1535.0L239.0 1532.5L232.5 1526.0L232.0 1523.0L234.0 1518.5L238.5 1514.5L248.0 1509.5L280.5 1497.5L301.0 1487.5L314.0 1479.0L317.0 1476.0L320.0 1470.0L323.5 1468.0L324.0 1466.5L321.0 1437.0L286.0 1437.5L286.0 1436.5L294.5 1436.0L295.5 1434.0L293.5 1432.0L294.0 1420.0L292.0 1401.5L270.5 1259.0L258.0 1159.0L249.5 1063.5L243.5 964.5L242.0 802.5L239.0 741.5L239.0 693.0L235.5 682.0L235.0 676.5L242.0 672.0L246.0 649.5L250.0 635.0L270.0 589.5L282.0 569.0L282.0 567.5L273.5 558.0L273.0 555.0L282.5 535.0L292.5 519.0L293.0 515.5L283.5 508.5L267.5 500.0L217.5 469.0L207.5 461.5L206.0 456.0L206.0 447.5L211.5 437.5L210.5 432.5L221.5 424.0L221.5 418.0L217.5 396.0L217.5 387.0L185.0 363.5L180.5 358.5L180.0 354.0L184.0 346.5L192.0 338.5L200.5 333.5L204.5 334.5L222.0 353.5L233.5 371.0L243.0 370.0L252.5 390.0L258.5 399.5L294.5 433.5L293.5 434.5L289.5 431.5L262.5 407.0L252.5 394.0L242.5 374.5L240.5 373.0L237.5 373.0L241.5 401.5L241.5 410.0L239.5 412.0L238.0 411.5L237.5 409.0L232.0 401.0L222.5 390.0L227.0 419.5L233.5 411.5L235.0 411.5L235.0 413.0L229.0 421.5L225.0 421.0L224.0 425.5L214.5 432.5L213.5 442.5L208.0 449.0L208.5 455.0L211.0 461.0L214.5 461.5L224.5 466.5L229.5 460.5L226.5 466.5L227.5 468.5L236.5 456.5L237.5 456.5L229.5 470.5L232.5 470.5L237.0 462.5L240.5 459.5L234.0 471.5L235.5 474.0L237.5 474.5L248.5 462.5L239.5 475.0L240.0 476.5L243.0 478.0L251.0 466.5L255.0 463.0L247.0 476.0L245.0 477.5L245.5 479.0L248.5 477.5L256.5 466.0L260.0 463.0L251.5 477.0L251.5 479.0L254.5 480.0L254.5 478.0L257.5 476.0L262.5 469.0L266.5 465.5L256.0 481.0L258.5 483.0L261.0 483.5L261.0 482.5L258.0 480.5L263.0 481.0L267.5 474.0L272.0 470.0L268.0 476.0L266.5 480.5L264.5 481.0L264.5 483.0L269.5 485.0L270.0 484.0L268.5 481.5L271.0 482.5L273.5 478.0L279.5 472.5L273.5 482.5L274.5 485.0L276.5 485.0L274.5 482.5L277.5 482.5L287.5 471.0L282.5 479.0L282.5 482.0L285.0 481.5L287.0 477.5L292.0 473.0L289.0 478.0L289.0 481.5L291.5 481.0L296.0 477.0L295.5 480.0L293.0 481.5L293.5 483.0L297.0 484.0L298.5 483.0L298.0 481.0L300.0 481.0L310.5 486.0L310.0 487.0L305.5 485.5L305.5 488.0L311.5 488.5L314.5 487.0L303.5 466.0L307.0 443.5L310.5 429.5L310.5 426.5L303.5 406.5L286.0 403.0L287.0 407.5L291.0 414.5L292.0 415.5L293.5 414.0L295.0 414.5L294.5 424.5L293.5 429.0L292.5 429.0L291.5 418.5L285.0 408.0L283.5 401.5L288.0 401.0L297.0 404.0L302.0 404.0L304.5 405.0L307.0 408.5L313.0 427.5L309.0 446.0L309.0 462.0L318.0 429.5L320.5 411.0L329.0 383.0L336.5 370.0L342.0 365.0L343.0 366.0L336.5 373.0L332.5 380.5L323.0 409.5L322.0 413.5L322.0 415.5L323.0 414.5L332.0 390.0L345.0 365.0L348.0 344.5L353.0 332.0L360.5 324.5L363.0 324.0L363.0 325.5L356.5 332.0L352.0 340.0L349.5 349.0L349.0 356.0L355.0 357.0L368.5 350.0L368.5 348.0L362.5 348.0L371.0 345.0L372.0 342.0L371.5 335.0L370.0 332.0L363.0 326.5L366.0 326.0L369.0 327.5L375.0 335.5L372.5 328.0L374.5 329.0L376.5 333.0L378.0 333.0L379.5 326.5L383.5 321.5L389.5 320.0L421.0 305.5L424.0 302.0L428.5 287.5L442.0 261.5L426.0 263.0L408.5 260.5L392.0 255.0L366.0 242.5L344.0 234.5L331.0 231.5L318.0 231.5L308.5 234.5L304.0 237.5L299.5 246.5L299.5 256.0L301.5 260.0L304.5 263.0L307.0 263.5L310.0 261.5L307.0 256.0L308.5 251.0L314.0 247.0L321.0 247.5L326.0 251.0L328.0 254.0L327.5 261.0L325.5 265.0L318.5 271.0L311.5 273.5L303.0 274.0L294.0 271.0L289.0 266.0L286.0 258.5L285.0 225.5L277.0 201.5L278.0 184.0L269.0 180.0L260.5 174.5L244.5 160.5L236.0 146.0L234.0 133.0L237.5 128.0L241.5 126.5L246.5 127.5L251.5 132.0L254.0 138.5L253.5 145.0L251.5 147.5L247.5 148.0L245.0 147.0L241.0 142.0L240.0 134.0L241.5 133.0L242.5 139.5L245.0 143.5L250.0 145.0L252.0 142.5L252.0 139.0L250.0 134.0L244.5 128.5L241.0 128.0L236.5 131.0L236.0 141.5L241.5 153.5L246.5 160.0L255.5 169.0L264.0 175.0L259.0 164.0L258.5 155.5L261.5 141.5L266.0 135.5L267.0 135.5L267.0 147.0L269.5 150.0L274.5 150.5L284.0 147.5L289.5 145.5L290.5 137.0L295.5 127.0L300.0 123.0L304.0 122.0L306.0 123.0L307.0 125.5L307.0 130.0L304.5 135.0L308.0 137.5L312.0 138.5L342.5 124.0L355.0 115.0L372.0 100.0L377.0 96.5L381.5 95.0ZM236.5 101.5L237.5 101.5L236.5 109.0L236.5 102.0ZM242.0 102.0L243.0 102.0L243.0 103.5L237.5 112.0L238.5 108.0L242.0 102.5ZM246.0 105.0L247.0 105.0L247.0 106.5L243.0 113.0L242.0 113.0L243.5 108.5L246.0 105.5ZM249.5 106.0L250.5 106.0L250.0 108.5L248.0 112.5L245.5 114.5L246.5 110.5L249.5 106.5ZM232.0 106.5L233.0 106.5L233.0 109.5L232.0 109.5L232.0 107.0ZM228.5 107.0L229.5 107.5L229.0 111.5L228.0 111.5L228.5 107.5ZM251.0 109.0L251.5 111.5L249.0 117.0L247.5 118.0L249.0 112.0L251.0 109.5ZM222.5 111.0L223.5 111.0L225.0 116.5L222.5 114.5L222.5 111.5ZM200.0 131.0L211.0 132.0L218.5 136.5L218.0 138.0L211.0 134.5L205.0 133.0L197.0 134.0L190.0 139.0L186.0 147.5L186.5 155.0L192.0 166.0L202.5 176.0L210.5 180.0L217.0 181.5L217.5 183.0L211.0 182.0L198.0 176.0L189.5 167.0L184.0 156.5L183.5 148.0L186.5 139.5L192.5 133.5L200.0 131.5ZM193.5 139.0L197.5 139.5L197.5 141.0L193.5 139.5ZM202.5 141.0L207.0 141.0L210.5 142.5L210.5 144.0L203.5 142.5L203.0 147.5L206.0 152.0L211.5 154.0L216.5 153.0L219.0 149.5L220.5 142.0L222.0 143.5L220.0 152.0L215.5 155.5L210.5 156.0L206.5 154.5L201.5 150.0L201.0 143.5L202.5 141.5ZM192.5 144.0L194.5 144.0L194.5 145.0L192.5 144.5ZM192.5 146.0L194.5 146.0L193.5 148.0L191.5 148.0L191.5 146.5L192.5 146.5ZM194.5 150.0L196.0 151.5L191.5 153.0L192.0 151.5L194.5 150.5ZM195.5 153.0L196.5 154.0L195.0 155.5L193.0 155.5L193.5 154.0L195.5 153.5ZM227.5 158.5L229.0 159.0L223.0 167.5L227.5 159.0ZM194.5 159.0L197.5 159.0L196.5 160.5L194.5 159.5ZM233.5 160.0L234.0 161.5L232.0 166.0L229.5 170.0L228.0 170.5L230.5 164.0L233.5 160.5ZM198.5 162.0L200.0 162.0L199.5 163.5L198.0 163.5L198.5 162.5ZM239.5 162.0L239.0 166.5L234.5 173.5L236.0 167.5L239.5 162.5ZM244.0 168.0L243.5 172.5L239.5 178.5L240.5 173.5L244.0 168.5ZM248.0 173.0L249.0 175.0L246.5 180.0L248.0 173.5ZM216.0 176.0L241.0 182.5L275.0 187.0L259.5 187.0L237.5 184.0L222.0 180.0L216.0 176.5ZM252.5 176.5L254.0 177.5L254.0 180.0L252.0 181.5L252.5 177.0ZM258.0 179.0L263.5 182.0L263.5 183.0L262.0 183.0L258.0 179.5ZM542.0 392.5L544.5 393.0L544.0 395.5L542.5 396.0L542.0 394.0L534.5 397.5L520.0 408.5L510.0 418.5L496.5 437.0L495.0 437.5L497.0 433.0L506.0 421.0L522.0 404.5L531.5 397.5L542.0 393.0ZM251.0 401.0L253.0 401.0L252.0 402.5L244.0 406.0L247.0 402.5L251.0 401.5ZM302.0 476.0L308.5 479.0L305.5 479.0L302.0 476.5ZM298.0 477.5L305.5 480.0L312.5 484.0L310.0 484.0L298.0 478.0ZM458.5 590.0L461.0 590.5L462.5 592.5L462.5 594.0L461.5 594.0L458.5 590.5Z"/>
<g transform="translate(0.000000,1620.000000) scale(0.100000,-0.100000)"
fill="#050505" stroke="none">
<path d="M2320 16047 c-19 -6 -56 -32 -81 -57 -53 -53 -84 -125 -99 -230 -10
-69 -6 -100 12 -100 5 0 7 4 4 8 -9 15 15 85 39 118 29 37 75 59 110 50 59
-15 49 -112 -16 -171 -22 -19 -46 -35 -54 -35 -20 0 -20 39 0 46 16 6 21 34 7
34 -18 0 -52 -42 -52 -65 0 -33 30 -48 67 -34 40 15 73 48 94 94 24 53 24 96
-2 129 -16 21 -29 26 -64 26 -36 0 -52 -6 -81 -32 -36 -31 -37 -32 -29 -8 21
70 52 123 91 159 48 45 72 54 130 49 31 -2 39 -7 40 -23 4 -52 4 -51 13 -37 6
11 9 9 13 -6 7 -27 -6 -96 -30 -160 -26 -68 -18 -66 14 3 62 136 29 259 -69
254 -12 -1 -38 -6 -57 -12z"/>
<path d="M2348 15997 c-5 -10 -8 -31 -8 -45 1 -24 2 -25 11 -9 6 10 9 30 7 45
-2 23 -4 24 -10 9z"/>
<path d="M2311 15953 c0 -31 2 -34 9 -18 12 28 12 55 0 55 -5 0 -10 -17 -9
-37z"/>
<path d="M2281 15953 c0 -15 4 -37 9 -48 7 -16 9 -11 9 22 1 23 -3 45 -9 48
-6 4 -10 -6 -9 -22z"/>
<path d="M2377 15966 c-4 -10 -5 -21 -2 -24 9 -9 17 6 13 25 -3 17 -4 17 -11
-1z"/>
<path d="M1877 15576 c-77 -28 -146 -99 -194 -203 -70 -150 -22 -285 138 -392
59 -40 99 -52 99 -31 0 6 13 4 30 -5 16 -8 39 -15 52 -15 16 0 0 13 -52 42
-137 76 -216 183 -196 265 12 47 56 113 89 134 86 52 150 -4 151 -133 1 -71
-5 -88 -27 -70 -8 7 -16 9 -19 6 -8 -7 -29 57 -22 68 3 5 15 6 27 2 20 -6 21
-5 6 10 -17 18 -44 13 -53 -10 -8 -22 17 -76 53 -112 l30 -32 35 30 c51 45 71
107 70 215 0 74 -4 100 -25 145 -14 31 -34 63 -43 73 -19 19 -46 23 -46 7 0
-5 7 -10 15 -10 40 0 92 -180 80 -274 -7 -54 -38 -136 -52 -136 -4 0 -7 26 -5
58 7 120 -40 205 -114 205 -22 0 -54 -8 -72 -17 -37 -19 -87 -92 -103 -149
-21 -80 30 -176 136 -256 l30 -22 -31 15 c-51 25 -141 113 -164 162 -69 141
51 367 229 430 30 11 32 13 11 13 -14 0 -42 -6 -63 -13z"/>
<path d="M1946 15518 c-5 -21 -5 -46 0 -55 6 -15 8 -13 12 10 2 15 2 39 0 55
-4 25 -5 24 -12 -10z"/>
<path d="M1896 15516 c-3 -13 -2 -35 3 -48 8 -19 10 -15 10 25 1 52 -4 60 -13
23z"/>
<path d="M1840 15488 c0 -13 5 -30 10 -38 7 -11 10 -7 10 17 0 17 -4 35 -10
38 -6 3 -10 -4 -10 -17z"/>
<path d="M2000 15480 c-7 -13 -7 -26 -2 -37 7 -12 10 -8 14 21 5 41 3 44 -12
16z"/>
<path d="M2030 15421 c-6 -12 -7 -21 -1 -21 10 0 24 30 17 37 -2 3 -9 -5 -16
-16z"/>
<path d="M2288 15278 c-94 -25 -189 -162 -196 -285 -3 -36 0 -69 5 -74 5 -5 9
13 10 46 2 77 51 181 113 239 74 70 147 74 237 13 84 -56 118 -132 111 -244
-5 -76 11 -68 19 9 9 85 -11 149 -64 209 -71 79 -154 109 -235 87z"/>
<path d="M3782 15239 c-23 -12 -86 -60 -140 -107 -171 -150 -253 -202 -437
-277 -38 -16 -74 -32 -79 -36 -8 -7 -49 6 -74 24 -10 8 -9 13 3 27 8 9 15 32
15 51 0 129 -151 19 -169 -122 l-6 -51 -55 -20 c-108 -39 -119 -41 -147 -23
-22 15 -25 23 -23 73 3 77 3 78 -20 57 -33 -30 -62 -123 -63 -200 -2 -68 1
-76 51 -178 10 -20 -39 16 -105 77 -39 37 -88 91 -108 121 -36 55 -81 165 -66
165 4 0 5 15 3 34 -3 26 1 37 19 50 35 24 57 20 94 -17 55 -55 61 -137 10
-137 -30 0 -65 50 -65 93 0 15 -4 27 -10 27 -5 0 -10 -13 -10 -29 0 -87 77
-152 124 -105 22 22 20 92 -4 131 -42 70 -115 87 -158 38 -22 -26 -24 -36 -19
-86 7 -76 63 -182 136 -258 59 -61 210 -166 271 -187 25 -9 34 -18 32 -31 -2
-10 -6 -52 -9 -93 -5 -78 -3 -86 59 -250 19 -48 21 -75 20 -205 -1 -172 10
-225 62 -279 104 -111 350 -42 364 102 4 45 2 50 -32 80 -50 44 -105 45 -147
3 -33 -33 -36 -56 -12 -90 15 -22 15 -25 -2 -37 -23 -17 -49 -4 -75 39 -28 45
-25 107 6 168 21 42 34 55 76 74 68 32 139 39 229 26 119 -19 330 -97 521
-192 138 -69 279 -110 403 -116 56 -3 117 -1 138 5 20 6 37 7 37 4 0 -4 -24
-50 -53 -102 -66 -120 -103 -202 -120 -268 -12 -47 -18 -55 -59 -77 -25 -13
-80 -38 -122 -55 -42 -16 -103 -44 -136 -60 -33 -17 -66 -30 -73 -30 -29 0
-67 -48 -67 -85 0 -42 -25 -49 -40 -10 -5 14 -14 25 -20 25 -6 0 -4 -12 5 -30
8 -16 15 -35 15 -42 -1 -7 -10 4 -20 24 -22 41 -55 68 -82 68 -27 0 -22 -13
10 -27 49 -22 73 -86 56 -150 -5 -17 -14 -23 -33 -23 -15 0 -36 -7 -47 -15
-18 -14 -16 -15 20 -9 61 11 42 -15 -44 -58 -53 -27 -78 -34 -87 -27 -6 6 -17
8 -23 4 -14 -9 -13 38 4 106 15 66 51 132 95 173 55 52 34 65 -23 15 -59 -52
-95 -138 -106 -258 -9 -98 -12 -108 -59 -190 -49 -85 -114 -234 -172 -396 -41
-113 -25 -36 28 135 56 180 85 242 136 291 22 22 33 39 25 39 -21 0 -96 -87
-117 -136 -52 -117 -137 -427 -125 -457 3 -8 -17 -93 -44 -188 -28 -96 -52
-183 -56 -194 -3 -11 -3 25 -1 80 4 94 28 219 45 239 5 5 -4 43 -19 85 -16 42
-32 92 -36 111 -11 51 -32 70 -77 70 -21 0 -55 7 -75 15 -37 16 -75 19 -86 9
-9 -10 28 -101 57 -139 20 -26 26 -45 26 -84 0 -27 4 -52 9 -55 7 -5 21 83 21
135 0 24 -17 25 -22 2 -3 -19 -68 95 -68 120 0 14 4 14 38 0 20 -9 59 -19 85
-22 l49 -6 32 -96 c18 -53 36 -101 40 -107 3 -6 -3 -44 -14 -84 -11 -40 -25
-118 -31 -173 -6 -55 -16 -105 -21 -112 -11 -14 21 -88 75 -173 l36 -55 -27
-14 c-17 -9 -27 -10 -30 -3 -1 5 -12 8 -22 5 -11 -3 -20 -1 -20 4 0 18 13 22
32 12 11 -6 22 -8 25 -6 6 7 -20 20 -87 47 -39 15 -50 17 -41 6 15 -18 -1 -30
-29 -21 -25 8 -26 21 -2 34 9 6 13 11 8 11 -5 0 -2 8 5 18 7 9 -2 3 -21 -15
-48 -44 -70 -32 -39 23 l22 39 -35 -35 c-19 -19 -34 -39 -34 -44 1 -6 -7 -12
-16 -14 -26 -5 -22 13 12 64 47 67 20 53 -30 -16 -35 -48 -48 -59 -64 -55 -21
6 -21 6 -2 -9 17 -14 17 -16 4 -16 -32 0 -29 21 7 71 20 28 35 53 32 55 -3 4
-85 -82 -86 -92 -1 -2 -1 -7 -1 -10 0 -4 -8 0 -17 7 -16 13 -17 12 -4 -4 19
-23 7 -33 -24 -19 -16 7 -23 17 -19 27 3 8 11 12 17 8 5 -3 7 -2 4 4 -3 5 10
34 29 64 31 47 32 51 10 29 -15 -13 -39 -44 -54 -67 -18 -29 -32 -41 -42 -37
-31 13 -44 14 -22 3 12 -7 22 -16 22 -21 0 -7 -34 6 -49 18 -2 2 22 38 53 80
71 93 67 111 -4 20 -29 -36 -56 -66 -62 -66 -5 0 -6 -5 -2 -11 4 -7 -1 -10
-11 -7 -32 6 -27 24 30 108 67 101 35 76 -43 -33 -39 -54 -59 -74 -66 -67 -7
7 -7 13 -1 18 9 6 25 29 81 117 37 58 -15 6 -59 -60 -22 -33 -41 -61 -43 -63
-1 -2 -11 2 -23 9 -20 13 -20 13 4 46 14 18 37 50 51 71 l27 37 -34 -35 c-19
-20 -45 -50 -59 -68 -23 -30 -27 -32 -45 -19 -22 17 -19 24 31 107 22 37 24
42 7 27 -12 -10 -31 -38 -44 -63 -23 -41 -37 -52 -52 -38 -3 4 11 32 32 63 52
77 56 85 42 77 -6 -4 -30 -34 -52 -68 -26 -38 -45 -56 -51 -50 -6 6 -1 23 12
48 l22 39 -21 -24 c-12 -13 -25 -30 -29 -38 -6 -11 -19 -7 -63 17 -29 16 -61
30 -70 30 -11 0 -20 15 -28 44 -17 67 -14 85 19 116 26 24 30 35 30 77 0 42 4
51 23 60 45 21 89 65 83 85 -4 17 -1 19 20 14 13 -4 24 -3 24 2 0 5 16 27 35
49 20 23 31 44 27 47 -13 8 -37 -14 -61 -54 -19 -31 -21 -32 -21 -12 0 13 -9
67 -19 120 -30 152 -31 164 -22 160 14 -5 151 -191 151 -205 0 -18 15 -16 30
2 11 13 9 45 -8 173 -12 86 -24 167 -28 180 -5 19 -2 22 19 22 21 0 31 -12 64
-78 92 -180 121 -219 247 -331 66 -58 146 -130 178 -160 32 -30 61 -51 65 -47
9 8 -84 99 -244 238 -119 104 -139 131 -235 327 l-41 83 -46 -5 -46 -6 -45 72
c-54 87 -207 266 -246 289 -26 14 -33 15 -62 2 -43 -18 -146 -116 -166 -159
-29 -61 -23 -79 57 -145 39 -34 125 -96 189 -139 65 -43 115 -81 111 -84 -7
-8 13 -176 34 -279 18 -89 16 -94 -53 -134 -38 -22 -65 -54 -46 -54 18 0 -2
-76 -24 -97 -19 -17 -24 -32 -24 -71 0 -27 3 -63 6 -80 7 -34 23 -46 241 -180
70 -44 180 -112 243 -152 63 -40 140 -86 170 -102 69 -36 185 -109 204 -128
13 -13 10 -22 -24 -76 -62 -98 -170 -309 -170 -333 0 -12 20 -43 46 -71 l47
-50 -35 -58 c-47 -75 -103 -190 -167 -337 -29 -66 -70 -160 -91 -210 -44 -100
-61 -164 -85 -305 -22 -138 -21 -134 -61 -153 -35 -17 -36 -19 -30 -59 4 -22
15 -65 25 -96 12 -36 16 -64 11 -81 -10 -36 6 -698 21 -871 7 -85 13 -405 14
-865 1 -410 7 -824 13 -945 44 -795 57 -974 102 -1495 54 -619 145 -1328 280
-2190 92 -589 136 -941 119 -962 -7 -8 -8 -13 -1 -13 5 0 12 -9 15 -19 4 -16
-2 -21 -34 -26 -21 -4 -43 -4 -49 0 -5 3 -10 1 -10 -6 0 -9 41 -10 174 -5
l174 7 5 -33 c3 -18 9 -73 12 -123 3 -49 8 -105 11 -122 4 -25 1 -33 -10 -33
-9 0 -26 -20 -37 -46 -24 -49 -74 -88 -209 -162 -99 -54 -304 -142 -410 -177
-126 -41 -214 -91 -234 -132 -21 -44 -21 -48 10 -88 19 -25 42 -39 87 -54 145
-47 387 -52 497 -11 30 12 96 41 145 66 93 46 118 52 340 72 105 9 105 10 104
212 0 189 -9 249 -38 268 -11 8 -21 21 -21 28 0 8 -6 14 -14 14 -11 0 -15 28
-20 123 -4 67 -9 139 -12 160 -6 36 -5 37 28 38 18 1 42 3 53 4 11 1 55 2 98
3 70 2 77 4 77 22 0 18 -7 20 -79 20 -74 0 -79 2 -84 23 -9 36 -16 154 -27
422 -6 138 -24 403 -40 590 -71 826 -92 1221 -110 2030 -13 584 -11 1771 2
1695 237 -1343 338 -1872 508 -2645 34 -154 94 -435 135 -625 268 -1254 377
-1726 394 -1718 104 53 241 118 248 118 5 0 15 -68 22 -151 12 -138 12 -153
-3 -161 -27 -15 -46 -64 -46 -120 0 -52 -2 -54 -58 -104 -69 -61 -181 -144
-282 -209 -76 -49 -280 -155 -299 -155 -5 0 -23 -12 -40 -26 -25 -20 -31 -34
-31 -64 0 -79 71 -117 233 -125 158 -7 316 40 438 133 68 51 148 89 219 102
82 16 159 40 167 53 24 39 -18 321 -63 423 l-24 55 -53 -2 c-46 -3 -52 -1 -55
18 -2 17 4 23 28 28 29 6 31 10 26 38 -7 42 -29 338 -24 340 2 1 42 21 89 44
99 48 99 48 99 -54 0 -54 14 -78 25 -44 7 25 -29 355 -55 506 -80 452 -185
1313 -239 1975 -70 846 -94 1372 -110 2485 -15 968 -27 1337 -56 1725 -15 190
-39 382 -51 401 -2 4 7 14 20 21 25 13 25 15 31 173 9 240 6 220 37 217 20 -2
32 5 52 31 14 19 26 37 26 40 0 4 14 30 31 58 30 48 84 169 170 383 39 96 204
473 259 591 15 33 49 112 76 175 50 121 564 1150 629 1258 55 94 58 154 6 105
-25 -24 -154 -257 -261 -473 -48 -96 -132 -263 -187 -370 -54 -107 -119 -240
-142 -295 -24 -55 -69 -152 -101 -215 -68 -135 -151 -322 -219 -493 -48 -117
-247 -523 -272 -553 -7 -8 -18 -13 -26 -10 -9 4 -13 -3 -13 -19 0 -14 -4 -25
-10 -25 -5 0 -10 4 -10 9 0 5 -10 7 -21 4 -19 -5 -21 -3 -17 25 4 25 1 32 -18
36 -12 3 -25 14 -27 24 -4 16 -5 16 -6 -1 -2 -36 -21 -5 -22 36 0 34 -2 38 -9
20 -6 -15 -15 -20 -29 -16 -26 7 -29 50 -3 56 16 4 16 5 0 6 -10 0 -18 9 -18
19 0 11 -3 13 -8 5 -6 -9 -18 -9 -50 -1 -45 11 -56 28 -19 29 20 0 20 1 3 8
-11 4 -23 16 -27 27 -7 17 -8 18 -8 1 -1 -13 -6 -17 -18 -13 -10 3 -35 8 -55
12 -56 9 -47 27 10 21 44 -6 44 -5 12 4 -19 5 -42 13 -50 16 -8 3 -25 5 -37 4
-19 -2 -23 3 -23 25 0 26 1 27 48 21 l47 -5 -47 15 c-27 8 -48 20 -48 26 0 9
-2 9 -8 0 -12 -19 -52 -4 -52 19 0 17 5 19 33 14 l32 -6 -30 12 c-16 6 -32 14
-35 17 -3 3 -18 7 -35 8 -16 2 -41 4 -55 6 -14 2 -33 5 -43 5 -14 2 -17 11
-15 47 0 25 -2 48 -5 52 -4 3 -7 -2 -7 -11 0 -10 -6 -16 -12 -13 -7 2 -13 16
-13 30 1 22 -4 27 -22 27 -15 0 -27 8 -33 23 -7 17 -9 18 -9 5 -1 -10 -7 -18
-15 -18 -53 0 -55 49 -2 51 24 1 20 4 -22 13 -29 6 -57 18 -62 26 -7 10 -10
11 -10 3 0 -7 -9 -13 -20 -13 -15 0 -20 7 -20 25 0 24 2 25 43 20 l42 -5 -45
13 c-25 7 -40 16 -33 20 6 4 9 16 6 28 -4 13 -8 17 -13 9 -10 -16 -64 -6 -68
12 -2 9 5 18 15 21 17 4 17 5 1 6 -10 0 -18 9 -18 19 0 12 -2 14 -8 4 -10 -15
-42 -5 -42 13 0 8 7 20 15 28 12 13 10 16 -18 22 -33 8 -49 10 -79 13 -10 1
-18 7 -18 13 0 6 7 8 18 4 14 -5 15 -4 5 6 -7 7 -13 21 -13 32 0 11 -11 22
-30 28 -30 11 -42 38 -17 40 6 0 -3 5 -20 10 -44 13 -42 29 5 30 l37 1 -32 9
c-46 13 -43 33 5 25 l37 -5 -40 18 c-22 10 -46 16 -52 13 -7 -2 -13 1 -13 6 0
15 23 28 27 15 2 -5 15 -8 29 -5 31 6 13 22 -24 22 -32 0 -25 32 8 41 25 7 25
7 2 8 -19 1 -22 5 -17 24 5 19 4 20 -5 5 -13 -22 -50 -24 -50 -4 0 8 13 54 29
103 16 48 32 99 35 113 3 14 13 34 21 44 15 19 16 19 47 -4 18 -13 107 -85
197 -159 251 -206 476 -362 682 -473 17 -9 65 -51 106 -94 57 -59 84 -97 116
-165 40 -85 57 -106 57 -74 0 8 5 14 12 12 15 -3 38 41 38 74 0 39 -195 239
-233 239 -15 0 -27 2 -27 4 0 3 20 63 44 133 24 70 74 214 109 318 84 243 249
645 269 653 5 2 8 12 8 21 0 10 23 64 50 120 28 56 50 107 50 112 0 16 -20 -1
-41 -35 -24 -40 -24 -30 2 36 26 68 151 255 224 337 61 69 144 143 185 166
104 59 135 69 208 68 59 0 77 -4 93 -20 20 -19 19 -19 -39 -15 -37 3 -62 0
-66 -7 -5 -7 8 -11 39 -11 93 0 137 -44 256 -254 18 -33 34 -55 37 -48 7 22
-83 174 -183 307 -57 75 -236 255 -484 486 -167 154 -236 228 -263 278 -19 34
-49 52 -56 33 -12 -37 -31 13 -48 128 -3 25 -10 55 -15 68 l-9 23 -45 -27
c-25 -14 -48 -24 -51 -21 -8 8 34 223 55 277 30 78 77 128 161 170 103 52 174
110 210 173 l30 52 -2 165 -3 165 41 86 c23 47 86 150 140 229 189 272 199
291 175 354 -19 48 -224 120 -476 164 -103 19 -433 35 -583 29 -107 -4 -164
-2 -224 10 -94 17 -233 70 -281 107 -48 36 -76 40 -125 15z m88 -21 c0 -17 44
-107 53 -108 11 0 9 38 -4 61 -10 19 -9 19 28 3 21 -9 79 -31 130 -48 51 -17
92 -33 93 -36 0 -3 -42 -13 -92 -23 -51 -10 -97 -22 -102 -27 -13 -13 7 -13
75 0 168 32 589 54 589 31 0 -5 16 -19 35 -31 19 -12 35 -29 35 -38 0 -12 3
-13 11 -5 17 17 4 40 -33 63 l-33 20 47 0 c27 0 50 -5 55 -13 12 -18 60 -47
67 -40 3 4 -1 15 -11 25 -15 17 -14 18 15 18 21 0 32 -5 32 -14 0 -14 29 -31
38 -21 3 2 -1 11 -8 20 -11 13 -8 15 18 15 19 0 35 -8 45 -22 14 -20 16 -21
16 -5 1 14 6 17 24 11 12 -4 25 -12 30 -18 5 -8 9 -8 15 1 8 13 216 -38 312
-76 82 -33 103 -57 95 -106 -7 -45 -15 -60 -90 -160 -104 -139 -205 -299 -236
-374 -31 -73 -32 -81 -33 -221 l-1 -145 -34 -59 c-45 -78 -107 -136 -191 -180
-74 -39 -138 -111 -164 -183 -13 -36 -34 -136 -51 -237 -4 -24 -10 -35 -14
-28 -6 9 -18 8 -52 -7 -100 -43 -285 -119 -306 -125 -21 -7 -21 -7 -7 56 21
92 131 308 164 320 62 24 212 102 203 105 -6 2 -50 -17 -99 -42 -103 -53 -122
-57 -98 -20 10 16 59 46 130 80 63 29 114 56 114 59 0 6 -22 -2 -105 -39 -97
-44 -105 -46 -98 -30 7 20 -12 19 -44 -2 -23 -15 -50 -18 -163 -18 -121 0
-144 3 -225 29 -49 16 -135 51 -190 78 -216 108 -447 185 -580 195 -161 11
-273 -51 -306 -171 -32 -119 69 -248 139 -178 10 10 27 22 38 26 19 7 19 8 -1
21 -52 37 -54 42 -25 73 24 26 50 28 90 7 55 -29 51 -97 -9 -144 -51 -40 -82
-51 -148 -51 -82 0 -123 27 -151 98 -19 50 -22 75 -20 202 1 153 3 142 -62
325 -23 62 -29 137 -16 193 l8 34 21 -20 c12 -11 40 -29 62 -41 37 -19 37 -20
10 -15 -30 5 -30 5 -9 -13 28 -25 134 -60 142 -47 13 19 62 7 95 -23 62 -57
124 -75 306 -84 114 -6 185 -15 230 -29 323 -97 485 -120 719 -101 160 13 197
0 185 -64 -6 -27 -5 -29 10 -16 21 17 23 71 3 71 -8 0 -16 7 -20 15 -10 28
-49 33 -188 23 -76 -6 -172 -7 -214 -3 l-76 7 22 23 c23 25 55 23 45 -3 -4
-12 -3 -13 10 -2 10 9 49 12 125 11 62 -1 127 3 150 10 80 24 230 179 230 238
0 7 15 32 34 57 19 24 49 73 67 109 19 36 36 65 39 65 3 0 10 -13 16 -28 10
-25 6 -35 -43 -102 -61 -86 -115 -170 -109 -170 7 0 139 179 180 244 39 61 43
86 7 40 l-21 -27 -1 37 c-2 46 3 31 -57 186 -68 175 -213 362 -287 371 -11 1
-45 -1 -75 -5 -133 -20 -456 -136 -377 -136 7 0 75 20 152 46 175 56 282 74
324 53 50 -24 147 -152 200 -262 52 -108 81 -186 81 -215 -1 -9 -27 -64 -60
-122 l-60 -105 0 50 c0 39 7 60 31 95 40 60 71 120 62 120 -5 0 -24 -28 -43
-61 -19 -33 -41 -65 -47 -71 -21 -17 -16 25 5 53 31 39 75 120 69 125 -3 3
-24 -26 -48 -65 -24 -38 -47 -67 -51 -65 -16 10 -7 40 27 97 19 31 30 57 25
57 -5 0 -24 -25 -42 -55 -24 -41 -34 -51 -41 -40 -5 10 2 30 24 61 17 26 26
45 19 42 -8 -2 -22 -21 -33 -41 -10 -20 -23 -34 -28 -31 -14 8 -10 27 11 54
21 27 25 40 11 40 -5 0 -14 -13 -21 -30 -7 -16 -15 -30 -19 -30 -3 0 -23 16
-44 36 -31 29 -36 38 -26 50 6 8 9 17 5 21 -3 4 -12 -2 -20 -12 -12 -17 -16
-17 -31 -5 -15 13 -15 15 7 31 l23 18 -30 11 c-21 8 -83 10 -200 7 -135 -4
-192 -10 -279 -31 -137 -32 -196 -54 -196 -73 0 -9 6 -13 15 -9 19 7 8 -14
-30 -59 l-26 -30 3 45 c3 38 -1 48 -23 68 -16 13 -40 22 -60 22 -46 0 -112
-70 -134 -141 -51 -173 27 -267 139 -170 25 21 42 42 38 47 -4 4 -2 4 4 1 7
-4 35 24 69 68 32 41 59 75 60 75 2 0 1 -10 -3 -22 -7 -29 -47 -87 -112 -163
-41 -48 -107 -147 -73 -110 26 29 132 154 152 180 l23 30 -8 -40 c-5 -29 -25
-61 -71 -115 -36 -41 -69 -84 -74 -95 -10 -20 -1 -11 93 94 l48 55 0 -33 c0
-25 -11 -45 -53 -89 -89 -96 -95 -111 -14 -32 61 59 77 70 77 54 0 -12 -8 -32
-18 -45 -10 -13 -31 -42 -46 -64 -25 -35 -22 -33 20 13 53 57 59 60 68 36 4
-9 -7 -32 -27 -57 -52 -64 -54 -78 -4 -23 41 44 68 53 67 23 -1 -7 -25 -38
-53 -70 l-53 -58 -84 25 c-47 13 -102 27 -124 31 l-38 6 23 17 c32 21 39 32
39 61 0 19 -4 22 -20 17 -11 -3 -28 -8 -37 -11 -22 -7 -77 26 -97 57 -8 13
-19 63 -24 111 -12 104 -29 129 -126 177 -68 34 -147 40 -196 15 -29 -15 -30
-15 -30 10 0 40 -24 88 -63 124 l-36 34 31 38 30 38 52 -21 c109 -44 416 -158
426 -158 5 0 10 4 10 9 0 10 -65 37 -270 116 l-125 48 60 20 c106 35 267 124
354 194 141 114 129 107 157 94 15 -7 27 -22 30 -41 4 -16 10 -30 15 -30 31 0
8 74 -28 94 l-25 13 30 21 30 22 41 -30 c22 -16 43 -41 47 -55 8 -34 24 -32
24 4 0 21 -10 38 -35 60 -20 17 -41 31 -48 31 -7 1 -1 7 13 15 30 17 70 19 70
3z m-830 -302 c0 -8 -23 -29 -52 -46 -48 -30 -51 -30 -36 -9 13 20 73 69 84
69 2 0 4 -6 4 -14z m-372 -228 c18 -18 88 -14 142 7 75 29 130 30 169 3 47
-32 72 -68 81 -117 6 -36 5 -41 -11 -41 -10 0 -31 -12 -46 -26 -38 -35 -112
-72 -161 -80 -114 -18 -232 85 -232 202 0 28 8 75 17 105 l17 54 6 -47 c3 -27
12 -54 18 -60z m1788 -6 c71 -47 124 -103 161 -174 24 -46 28 -65 28 -138 0
-102 -19 -146 -91 -208 -64 -57 -135 -82 -233 -82 -181 0 -341 95 -422 250
-20 37 -24 60 -24 135 0 78 4 97 26 140 15 27 39 59 53 70 34 25 159 42 322
44 l121 1 59 -38z m-738 -23 c2 -12 -21 -31 -72 -63 -42 -25 -76 -43 -76 -39
0 16 52 94 73 108 27 19 71 16 75 -6z m125 -57 c-32 -43 -70 -94 -86 -113
l-27 -34 17 50 c20 60 109 175 135 175 15 0 6 -16 -39 -78z m-113 10 c0 -5
-33 -32 -74 -60 -41 -29 -82 -59 -91 -68 -15 -15 -15 -14 -9 12 4 16 7 30 8
31 4 5 152 93 159 93 4 0 7 -4 7 -8z m-444 -81 c22 -10 57 -33 77 -51 35 -31
37 -35 37 -95 0 -35 4 -75 9 -88 14 -36 71 -97 100 -109 72 -27 -79 -39 -166
-13 -68 20 -151 110 -211 226 -34 69 -53 128 -39 129 1 0 20 7 42 15 45 17 90
12 151 -14z m-249 -143 c1 -18 10 -54 22 -80 11 -27 17 -48 12 -48 -9 0 -51
91 -51 109 0 13 -6 14 -28 2 -23 -11 -182 -24 -162 -12 8 4 44 11 78 15 41 4
73 13 89 26 34 27 39 25 40 -12z m902 -232 c10 -12 5 -22 -23 -54 -50 -55 -45
-65 7 -14 34 34 46 40 54 30 16 -19 -50 -93 -74 -83 -10 4 -29 9 -43 11 -55
10 -55 13 0 69 30 30 57 55 61 55 4 0 12 -6 18 -14z m69 -107 c-14 -18 -31
-29 -46 -29 -22 0 -23 2 -11 18 39 51 52 62 65 51 11 -9 9 -17 -8 -40z m84 10
l20 -11 -21 -22 c-16 -17 -29 -21 -56 -18 -41 5 -42 8 -13 39 24 26 39 28 70
12z m674 -890 c8 -51 19 -100 24 -109 11 -21 -4 -35 -105 -106 -105 -73 -227
-167 -351 -270 l-111 -93 -7 52 c-3 29 -6 75 -6 104 0 74 -18 150 -43 179
l-22 25 -33 -34 c-40 -42 -42 -65 -12 -134 21 -47 22 -55 10 -97 -18 -64 -77
-156 -100 -156 -11 0 -49 34 -91 83 -40 45 -80 85 -88 90 -10 4 -5 5 11 2 22
-4 26 -2 22 10 -4 8 -12 15 -20 15 -36 0 3 39 55 55 15 5 26 3 32 -6 11 -18
23 -4 15 17 -6 17 -39 16 -79 -1 -16 -6 -18 -4 -15 15 4 28 30 37 125 42 l68
3 20 40 c17 34 29 43 85 65 96 37 423 201 515 258 44 28 81 49 83 47 2 -2 10
-45 18 -96z m-540 -104 c-4 -23 -13 -51 -21 -61 -14 -18 -14 -18 -14 1 -1 22
16 102 26 125 10 25 16 -16 9 -65z m684 -91 c50 -68 129 -147 320 -318 36 -33
112 -104 168 -160 l104 -101 -55 -6 c-96 -11 -241 -104 -373 -241 -76 -78
-180 -210 -189 -240 -7 -21 -8 -21 -22 -2 -14 18 -14 17 -12 -11 3 -33 -8 -75
-20 -75 -4 0 -12 21 -19 46 -18 67 -24 49 -7 -21 18 -77 5 -104 -19 -40 -24
61 -30 52 -10 -15 13 -45 14 -60 3 -98 -12 -43 -12 -44 -25 -21 -21 38 -16 14
11 -52 20 -49 22 -65 13 -85 -12 -26 -28 -32 -28 -11 -1 18 -40 101 -45 95 -3
-3 6 -34 19 -69 21 -56 22 -67 10 -83 -13 -19 -14 -19 -20 0 -22 60 -55 126
-61 121 -3 -4 9 -40 27 -82 26 -60 31 -80 23 -98 -9 -20 -14 -12 -53 71 -24
51 -45 91 -47 88 -2 -2 14 -48 37 -101 36 -87 44 -136 22 -135 -4 0 -24 37
-45 81 -21 45 -41 79 -43 76 -3 -2 13 -46 36 -96 33 -77 38 -95 28 -111 -11
-17 -17 -10 -56 71 -24 50 -45 89 -48 87 -2 -3 14 -45 36 -94 44 -99 46 -111
26 -140 -13 -18 -18 -12 -62 84 -26 56 -49 101 -50 99 -5 -5 33 -102 65 -165
21 -42 26 -63 20 -79 -5 -13 -11 -23 -14 -23 -2 0 -23 36 -45 80 -22 44 -42
80 -45 80 -7 0 10 -40 48 -117 33 -65 34 -70 20 -97 l-15 -29 -56 106 c-31 59
-57 105 -59 103 -2 -1 22 -55 52 -119 49 -104 53 -119 44 -146 -13 -38 -21
-34 -55 29 -39 71 -41 54 -4 -21 31 -61 32 -64 18 -108 l-14 -46 -49 92 c-27
51 -50 91 -52 89 -2 -2 17 -47 43 -99 46 -92 47 -97 35 -136 -6 -23 -15 -41
-19 -41 -8 0 -24 27 -94 155 -27 50 -46 79 -43 65 6 -23 87 -181 117 -229 10
-16 8 -28 -11 -70 l-24 -50 -54 111 c-30 60 -56 108 -59 106 -2 -3 20 -56 50
-119 46 -97 52 -118 44 -141 -6 -16 -13 -30 -18 -33 -4 -2 -28 31 -54 75 -25
44 -49 80 -52 80 -3 0 17 -43 45 -95 46 -86 50 -98 39 -119 l-13 -24 -90 55
c-135 82 -303 202 -465 333 -80 64 -178 142 -217 174 -62 50 -72 62 -67 82 3
13 4 24 2 24 -7 0 -94 -129 -155 -229 -29 -47 -53 -83 -53 -79 0 14 77 168
117 235 48 80 53 95 22 67 -56 -51 -212 -385 -273 -585 -18 -60 -35 -112 -39
-115 -9 -10 -85 48 -186 142 -52 48 -97 82 -99 76 -5 -17 -22 -15 -22 3 0 52
254 468 371 608 27 33 47 62 44 67 -3 4 4 10 15 13 23 6 27 27 6 27 -21 0 -60
68 -48 83 6 7 21 41 35 77 14 36 39 94 56 129 17 36 36 88 42 117 9 41 17 54
35 58 26 7 290 182 322 214 11 11 33 29 49 39 63 39 224 165 318 248 55 48
125 106 155 127 30 22 100 86 155 142 100 102 232 217 335 293 30 22 89 70
130 106 41 36 77 66 80 66 3 0 30 -34 60 -75z m-1012 -32 c15 -29 23 -72 13
-72 -5 0 -12 13 -16 29 -8 37 -29 55 -55 48 -25 -6 -26 8 -3 22 20 11 48 -1
61 -27z m-68 -111 c0 -9 -9 -44 -20 -77 -19 -56 -22 -59 -53 -58 -38 2 -39 12
-7 96 18 49 23 55 50 56 22 0 30 -4 30 -17z m-1787 -5 c7 -18 -10 -94 -27
-118 -20 -28 -88 -77 -108 -78 -9 0 -19 4 -23 10 -18 29 74 145 97 122 9 -9 6
-17 -11 -36 -13 -14 -28 -24 -34 -23 -5 1 -12 -4 -14 -10 -10 -28 45 -13 67
17 49 69 -5 108 -67 48 -62 -59 -84 -130 -44 -143 22 -7 37 -35 18 -35 -24 0
-77 40 -77 58 0 10 13 38 29 63 61 95 177 170 194 125z m44 -77 c-3 -21 -15
-55 -27 -74 -27 -44 -95 -89 -118 -80 -15 6 -13 9 8 23 56 37 99 89 111 135
13 55 34 52 26 -4z m63 -58 c0 -64 -48 -191 -71 -191 -9 0 -62 37 -102 71 -5
3 8 17 28 29 52 32 95 95 95 138 l0 35 25 -23 c18 -17 25 -34 25 -59z m138
-162 c23 -36 42 -68 42 -71 0 -6 -71 -31 -119 -42 -18 -3 -36 4 -65 26 -23 18
-42 33 -44 34 -1 1 8 22 21 46 13 25 30 72 37 106 l14 60 36 -47 c20 -25 55
-76 78 -112z m1460 121 c12 0 22 -5 22 -10 0 -16 -43 -28 -67 -19 -14 5 -25 4
-29 -2 -9 -15 -184 -99 -184 -89 0 5 36 28 80 51 45 24 88 52 97 62 11 11 25
16 38 13 11 -3 30 -6 43 -6z m137 -116 c66 -102 78 -114 91 -103 14 12 16 11
13 -6 -7 -34 -44 -30 -72 7 -79 103 -137 218 -112 218 3 0 38 -52 80 -116z
m184 -4 c-12 -22 -25 -38 -27 -35 -5 4 37 75 44 75 3 0 -5 -18 -17 -40z m-354
16 c18 -13 16 -16 -39 -40 -73 -32 -86 -27 -19 8 54 28 54 34 -1 11 -45 -19
-47 -6 -3 16 42 21 40 21 62 5z m30 -35 c-24 -23 -147 -83 -143 -70 5 15 114
78 138 79 8 0 10 -3 5 -9z m35 -42 c0 -4 -21 -20 -47 -35 -82 -46 -144 -86
-140 -90 2 -3 48 21 102 53 l97 56 19 -24 c10 -13 19 -27 19 -30 0 -9 -260
-172 -266 -167 -14 15 19 43 112 99 57 33 104 63 104 65 0 6 -75 -32 -141 -72
-64 -39 -74 -41 -64 -16 7 18 12 41 14 79 1 28 159 117 178 101 7 -6 13 -14
13 -19z m-1449 -122 c-14 -36 -28 -34 -81 13 -42 37 -44 39 -20 40 14 1 43 9
65 19 l40 18 3 -32 c2 -17 -2 -43 -7 -58z m1515 17 c2 -7 -248 -181 -278 -193
-6 -2 -8 6 -6 18 2 14 43 47 133 105 126 81 146 90 151 70z m24 -31 c-1 -5
-47 -40 -103 -80 -56 -40 -128 -91 -160 -114 -54 -38 -58 -40 -55 -19 2 17 42
49 148 121 135 91 171 111 170 92z m-13 -57 c-67 -54 -301 -216 -306 -210 -8
8 27 37 183 148 82 58 152 104 155 100 3 -3 -11 -20 -32 -38z m-1507 18 c0 -8
-5 -12 -10 -9 -6 4 -8 11 -5 16 9 14 15 11 15 -7z m727 -776 c-3 -7 -5 -2 -5
12 0 14 2 19 5 13 2 -7 2 -19 0 -25z m-559 -120 c19 -19 14 -30 -8 -18 -11 6
-20 15 -20 20 0 14 14 12 28 -2z m310 -36 c2 -7 -3 -12 -12 -12 -9 0 -16 7
-16 16 0 17 22 14 28 -4z m67 8 c3 -5 -1 -10 -9 -10 -8 0 -18 5 -21 10 -3 6 1
10 9 10 8 0 18 -4 21 -10z m-311 -15 c15 -11 16 -15 5 -15 -8 0 -24 7 -35 15
-14 11 -15 14 -4 14 8 0 24 -6 34 -14z m445 6 c22 -14 4 -33 -20 -21 -11 6
-17 15 -14 21 8 11 16 11 34 0z m-349 -32 c0 -5 -11 -3 -25 3 -14 6 -25 15
-25 19 0 5 11 3 25 -3 14 -6 25 -15 25 -19z m200 11 c0 -14 -15 -19 -29 -10
-17 10 -5 31 14 23 8 -3 15 -9 15 -13z m66 5 c10 -8 14 -15 8 -15 -5 0 -19 7
-30 15 -10 8 -14 15 -8 15 5 0 19 -7 30 -15z m-201 -6 c4 -6 5 -12 2 -15 -7
-7 -37 7 -37 17 0 13 27 11 35 -2z m65 -10 c0 -4 -7 -6 -15 -3 -8 4 -15 10
-15 15 0 4 7 6 15 3 8 -4 15 -10 15 -15z m206 -17 c-7 -7 -46 9 -46 18 0 5 11
4 25 -2 14 -6 23 -13 21 -16z m-370 3 c10 -8 14 -15 8 -15 -5 0 -19 7 -30 15
-10 8 -14 15 -8 15 5 0 19 -7 30 -15z m287 0 c-4 -15 -36 -12 -41 3 -3 9 3 13
19 10 13 -1 23 -7 22 -13z m-204 -4 c7 -5 9 -11 4 -14 -6 -4 -19 0 -29 8 -15
11 -16 14 -4 15 8 0 21 -4 29 -9z m66 -1 c3 -5 -1 -10 -9 -10 -8 0 -18 5 -21
10 -3 6 1 10 9 10 8 0 18 -4 21 -10z m60 0 c8 -13 -5 -13 -25 0 -13 8 -13 10
2 10 9 0 20 -4 23 -10z m132 -8 c7 -4 9 -13 4 -21 -7 -10 -13 -11 -30 -2 -12
7 -19 16 -16 22 7 11 25 12 42 1z m73 4 c0 -11 -19 -15 -25 -6 -3 5 1 10 9 10
9 0 16 -2 16 -4z m-345 -34 c-7 -8 -35 7 -35 18 0 6 7 6 20 -2 10 -7 17 -14
15 -16z m65 6 c0 -6 -7 -7 -16 -4 -9 3 -18 6 -20 6 -3 0 -3 4 1 10 7 11 35 2
35 -12z m58 4 c2 -7 -2 -10 -12 -6 -9 3 -16 11 -16 16 0 13 23 5 28 -10z m62
8 c8 -5 12 -11 9 -14 -3 -3 -14 1 -25 9 -21 16 -8 20 16 5z m135 -10 c3 -6 -1
-13 -10 -16 -19 -8 -30 0 -20 15 8 14 22 14 30 1z m-275 -31 c0 -4 -7 -6 -15
-3 -8 4 -15 10 -15 15 0 4 7 6 15 3 8 -4 15 -10 15 -15z m64 12 c3 -4 3 -11 0
-14 -8 -8 -34 3 -34 14 0 11 27 12 34 0z m66 -1 c13 -8 13 -10 -2 -10 -9 0
-20 5 -23 10 -8 13 5 13 25 0z m70 0 c13 -9 13 -10 0 -10 -8 0 -22 5 -30 10
-13 9 -13 10 0 10 8 0 22 -5 30 -10z m-90 -20 c8 -5 11 -12 8 -16 -10 -9 -38
3 -38 16 0 12 10 13 30 0z m70 0 c8 -5 12 -11 9 -14 -3 -3 -14 1 -25 9 -21 16
-8 20 16 5z m65 0 c3 -5 2 -10 -4 -10 -5 0 -13 5 -16 10 -3 6 -2 10 4 10 5 0
13 -4 16 -10z m-200 -11 c11 -17 0 -20 -21 -4 -17 13 -17 14 -2 15 9 0 20 -5
23 -11z m143 -25 c16 -8 20 -14 12 -19 -7 -4 -15 -4 -19 1 -3 5 -12 9 -18 10
-29 2 -33 5 -33 19 0 15 13 13 58 -11z m-91 -10 c-7 -7 -37 7 -37 17 0 6 9 5
21 -1 11 -7 19 -14 16 -16z m130 20 c-3 -3 -12 -4 -19 -1 -8 3 -5 6 6 6 11 1
17 -2 13 -5z m-93 -30 c9 -3 14 -10 11 -15 -7 -10 -35 0 -35 12 0 11 3 11 24
3z m36 -24 c0 -5 -5 -10 -11 -10 -5 0 -7 5 -4 10 3 6 8 10 11 10 2 0 4 -4 4
-10z m291 -387 c-12 -20 -14 -14 -5 12 4 9 9 14 11 11 3 -2 0 -13 -6 -23z
m-43 -106 c-17 -42 -33 -75 -36 -73 -2 2 11 38 28 81 18 42 34 74 36 72 2 -2
-10 -38 -28 -80z m146 77 c24 -9 19 -34 -6 -34 -21 -1 -22 -2 -5 -14 22 -17
22 -26 -3 -26 -21 0 -25 16 -14 58 7 25 6 24 28 16z m-4 -104 c0 -5 -9 -10
-20 -10 -11 0 -20 5 -20 10 0 6 9 10 20 10 11 0 20 -4 20 -10z m34 -5 c-6 -16
-24 -21 -24 -7 0 11 11 22 21 22 5 0 6 -7 3 -15z m-460 -133 c43 -40 98 -84
122 -98 28 -17 41 -30 37 -40 -3 -8 -8 -14 -12 -14 -4 0 -67 59 -141 131 -140
137 -143 146 -6 21z m416 98 c0 -5 -9 -10 -20 -10 -11 0 -20 5 -20 10 0 6 9
10 20 10 11 0 20 -4 20 -10z m40 1 c0 -6 -4 -13 -10 -16 -5 -3 -10 1 -10 9 0
9 5 16 10 16 6 0 10 -4 10 -9z m-50 -42 c0 -5 -7 -9 -15 -9 -8 0 -15 7 -15 15
0 9 6 12 15 9 8 -4 15 -10 15 -15z m40 -4 c0 -8 -4 -15 -10 -15 -5 0 -10 7
-10 15 0 8 5 15 10 15 6 0 10 -7 10 -15z m50 -5 c0 -5 -9 -10 -21 -10 -11 0
-17 5 -14 10 3 6 13 10 21 10 8 0 14 -4 14 -10z m-90 -30 c0 -5 -6 -10 -14
-10 -8 0 -18 5 -21 10 -3 6 3 10 14 10 12 0 21 -4 21 -10z m30 0 c0 -5 -5 -10
-11 -10 -5 0 -7 5 -4 10 3 6 8 10 11 10 2 0 4 -4 4 -10z m50 -10 c0 -5 -7 -10
-15 -10 -8 0 -15 5 -15 10 0 6 7 10 15 10 8 0 15 -4 15 -10z m70 -15 c0 -16
-9 -19 -34 -9 -25 9 -19 24 9 24 16 0 25 -6 25 -15z m-613 -37 c-21 -92 -90
-325 -107 -365 -38 -86 -101 -318 -112 -412 l-11 -97 -80 -42 c-74 -39 -79
-40 -74 -19 3 12 13 63 22 112 25 149 49 221 138 420 118 268 209 445 227 445
4 0 3 -19 -3 -42z m493 17 c0 -8 -4 -15 -10 -15 -5 0 -10 7 -10 15 0 8 5 15
10 15 6 0 10 -7 10 -15z m48 -8 c2 -12 -3 -17 -17 -17 -15 0 -21 6 -21 21 0
25 33 22 38 -4z m61 -3 c8 -7 -12 -24 -30 -24 -13 0 -19 7 -19 21 0 16 4 19
23 13 12 -3 24 -8 26 -10z m-220 -76 c87 -61 296 -217 450 -336 41 -31 107
-86 147 -122 39 -36 118 -105 174 -155 57 -49 148 -130 202 -180 55 -49 127
-113 161 -141 34 -28 85 -72 112 -98 39 -38 43 -44 18 -29 -59 34 -244 185
-352 287 -97 92 -169 155 -444 389 -81 68 -373 283 -509 374 -47 31 -73 34
-90 9 -5 -7 -8 -5 -8 5 0 9 7 19 15 23 8 3 15 12 15 21 0 25 15 18 109 -47z
m-243 -5 c35 -32 64 -64 64 -71 0 -29 25 -4 28 28 3 32 4 33 15 10 7 -13 37
-36 67 -53 68 -36 211 -135 332 -230 51 -40 129 -99 172 -131 204 -151 373
-297 627 -542 96 -93 159 -146 184 -155 l37 -14 -6 -59 c-3 -32 -6 -101 -6
-151 l0 -93 -182 -60 c-101 -34 -295 -93 -433 -131 -137 -39 -344 -101 -460
-140 -115 -38 -213 -67 -217 -63 -32 33 -358 671 -358 702 0 19 -39 158 -52
185 -5 12 -10 27 -12 35 -2 8 -6 22 -9 30 -4 8 -18 47 -32 86 -24 70 -25 74
-11 140 37 174 178 734 184 734 2 0 32 -26 68 -57z m454 27 c0 -13 -7 -20 -20
-20 -13 0 -20 7 -20 20 0 13 7 20 20 20 13 0 20 -7 20 -20z m70 -13 c0 -20 -4
-23 -30 -19 -45 6 -39 42 7 42 17 0 23 -6 23 -23z m41 10 c-1 -4 -1 -14 -1
-22 0 -8 -7 -15 -16 -15 -11 0 -14 5 -10 16 3 9 6 20 6 26 0 5 5 8 11 6 6 -2
10 -7 10 -11z m-60 -47 c5 0 9 -9 9 -20 0 -24 -8 -25 -32 -3 -22 20 -24 37 -2
29 9 -3 20 -6 25 -6z m49 -30 c0 -11 -4 -20 -10 -20 -5 0 -10 9 -10 20 0 11 5
20 10 20 6 0 10 -9 10 -20z m53 -10 c-3 -11 -12 -20 -19 -20 -8 0 -14 9 -14
20 0 13 7 20 19 20 14 0 18 -5 14 -20z m-8 -40 c3 -5 -3 -10 -14 -10 -12 0
-21 5 -21 10 0 6 6 10 14 10 8 0 18 -4 21 -10z m45 -10 c0 -5 -7 -10 -15 -10
-8 0 -15 5 -15 10 0 6 7 10 15 10 8 0 15 -4 15 -10z m40 -5 c0 -9 -6 -12 -15
-9 -8 4 -15 10 -15 15 0 5 7 9 15 9 8 0 15 -7 15 -15z m-50 -31 c0 -8 -4 -12
-10 -9 -5 3 -10 10 -10 16 0 5 5 9 10 9 6 0 10 -7 10 -16z m40 -14 c0 -11 -7
-20 -15 -20 -8 0 -15 9 -15 20 0 11 7 20 15 20 8 0 15 -9 15 -20z m45 -51 c11
-17 0 -20 -21 -4 -17 13 -17 14 -2 15 9 0 20 -5 23 -11z m57 -24 c-2 -14 -11
-25 -18 -25 -8 0 -14 10 -14 25 0 18 5 25 19 25 14 0 17 -6 13 -25z m55 -60
c9 -24 0 -25 -27 -5 l-25 20 23 0 c12 0 25 -7 29 -15z m63 -16 c0 -15 -5 -20
-22 -17 -34 5 -37 38 -4 38 20 0 26 -5 26 -21z m-5 -47 c-3 -3 -11 0 -18 7 -9
10 -8 11 6 5 10 -3 15 -9 12 -12z m45 -18 c0 -22 -2 -25 -15 -14 -8 7 -15 19
-15 26 0 8 7 14 15 14 10 0 15 -10 15 -26z m75 -65 c12 -19 -5 -23 -22 -6 -16
16 -16 17 -1 17 9 0 20 -5 23 -11z m64 -8 c8 -5 11 -16 8 -24 -8 -22 -57 -10
-57 14 0 20 25 25 49 10z m1 -61 c0 -5 -4 -10 -9 -10 -6 0 -13 5 -16 10 -3 6
1 10 9 10 9 0 16 -4 16 -10z m64 -22 c-3 -13 -8 -25 -11 -28 -7 -8 -38 17 -41
34 -3 12 4 16 28 16 28 0 31 -2 24 -22z m51 -59 c4 -6 5 -13 2 -16 -8 -7 -47
7 -47 18 0 13 37 11 45 -2z m5 -39 c0 -5 -2 -10 -4 -10 -3 0 -8 5 -11 10 -3 6
-1 10 4 10 6 0 11 -4 11 -10z m40 -10 c0 -5 -4 -10 -10 -10 -5 0 -10 5 -10 10
0 6 5 10 10 10 6 0 10 -4 10 -10z m63 0 c16 0 18 -3 10 -11 -14 -14 -63 -4
-63 12 0 6 7 8 16 5 9 -3 25 -6 37 -6z m-9 -36 c16 -6 23 -44 8 -44 -13 0 -52
30 -52 41 0 10 21 12 44 3z m86 -28 c0 -6 -4 -17 -9 -25 -13 -21 -51 -4 -51
23 0 19 4 22 30 18 17 -2 30 -9 30 -16z m30 -21 c0 -14 -4 -25 -10 -25 -5 0
-10 11 -10 25 0 14 5 25 10 25 6 0 10 -11 10 -25z m-45 -36 c12 -19 -5 -23
-22 -6 -16 16 -16 17 -1 17 9 0 20 -5 23 -11z m-1634 -26 c6 -16 17 -46 24
-69 l12 -41 -44 1 -43 1 6 43 c4 26 2 42 -4 42 -9 0 27 49 36 50 1 0 7 -12 13
-27z m1679 12 c0 -8 -4 -15 -10 -15 -5 0 -10 7 -10 15 0 8 5 15 10 15 6 0 10
-7 10 -15z m58 -17 c2 -12 -2 -15 -17 -11 -12 3 -21 12 -21 20 0 20 34 12 38
-9z m-7 -28 c5 0 9 -11 9 -25 0 -29 -7 -31 -32 -8 -23 20 -24 48 -2 39 9 -3
20 -6 25 -6z m-1807 -32 c-16 -31 -87 -121 -171 -217 l-39 -44 -20 76 -21 76
51 32 c73 47 189 108 204 109 9 0 8 -8 -4 -32z m1856 10 c0 -7 -5 -20 -10 -28
-8 -12 -10 -9 -10 13 0 15 5 27 10 27 6 0 10 -6 10 -12z m38 -21 c3 -21 0 -26
-12 -21 -19 7 -22 58 -3 52 6 -3 13 -17 15 -31z m2 -57 c0 -11 -7 -20 -15 -20
-8 0 -15 9 -15 20 0 11 7 20 15 20 8 0 15 -9 15 -20z m36 -7 c-3 -8 -6 -17 -6
-19 0 -2 -4 -4 -10 -4 -5 0 -10 11 -10 25 0 18 4 23 16 18 8 -3 13 -12 10 -20z
m-1578 -1380 c33 -27 89 -73 125 -103 l65 -55 31 -158 c17 -86 31 -170 31
-186 0 -16 18 -123 40 -238 43 -224 45 -243 30 -243 -5 0 -10 9 -10 19 0 10
-16 92 -35 182 -19 90 -40 207 -46 259 -9 79 -34 232 -54 327 -3 12 -21 32
-42 44 -41 26 -216 175 -221 190 -8 22 30 5 86 -38z m367 -1205 c4 -43 5 -78
2 -78 -12 0 -49 239 -42 267 7 24 10 19 21 -42 7 -38 16 -105 19 -147z m12
-120 c-3 -8 -6 -5 -6 6 -1 11 2 17 5 13 3 -3 4 -12 1 -19z m1340 -2870 c-3 -7
-5 -2 -5 12 0 14 2 19 5 13 2 -7 2 -19 0 -25z m38 -368 c4 -47 5 -83 2 -80 -8
8 -37 281 -36 337 2 50 20 -91 34 -257z m12 -122 c-3 -7 -5 -2 -5 12 0 14 2
19 5 13 2 -7 2 -19 0 -25z m-1350 -300 c-3 -8 -6 -5 -6 6 -1 11 2 17 5 13 3
-3 4 -12 1 -19z m10 -160 c-2 -18 -4 -6 -4 27 0 33 2 48 4 33 2 -15 2 -42 0
-60z m42 -500 c6 -108 10 -238 10 -290 -1 -55 -11 54 -25 267 -25 401 -29 576
-9 355 7 -74 18 -223 24 -332z m25 -471 c5 -54 4 -77 -4 -72 -5 3 -10 40 -10
82 0 42 2 74 4 72 2 -2 6 -39 10 -82z m-265 -101 c-2 -2 -57 -6 -122 -10 -82
-5 -117 -4 -112 4 4 6 52 10 122 10 64 0 114 -2 112 -4z m109 -3 c-15 -2 -42
-2 -60 0 -18 2 -6 4 27 4 33 0 48 -2 33 -4z m1402 -38 c0 -8 -62 -37 -67 -31
-4 3 9 12 28 20 39 18 39 17 39 11z m-1400 -179 l55 -12 3 -69 c2 -47 -1 -71
-10 -77 -9 -6 -4 -8 15 -4 35 8 34 0 -3 -19 -30 -15 -30 -15 -30 13 0 37 -17
52 -56 52 -31 0 -32 1 -39 55 -5 45 -2 77 8 75 1 -1 27 -7 57 -14z m97 -108
c-2 -18 -4 -6 -4 27 0 33 2 48 4 33 2 -15 2 -42 0 -60z m1352 -5 c1 -30 -2
-32 -41 -40 -39 -8 -44 -7 -50 12 -14 45 -8 60 35 88 l42 28 6 -28 c4 -15 7
-42 8 -60z"/>
<path d="M3970 15131 c0 -11 4 -21 9 -21 18 0 21 18 6 30 -13 10 -15 9 -15 -9z"/>
<path d="M3635 15071 c-3 -5 4 -12 15 -16 11 -3 20 -13 20 -21 0 -16 16 -19
25 -4 6 10 -29 50 -44 50 -6 0 -12 -4 -16 -9z"/>
<path d="M3860 14956 c0 -2 7 -6 15 -10 8 -3 15 -1 15 4 0 6 -7 10 -15 10 -8
0 -15 -2 -15 -4z"/>
<path d="M3780 14940 c0 -8 24 -20 41 -20 6 0 8 4 5 9 -8 12 -46 21 -46 11z"/>
<path d="M3699 14910 c12 -11 28 -17 33 -14 6 4 0 13 -13 20 -36 20 -47 16
-20 -6z"/>
<path d="M4443 14909 c4 -13 7 -36 7 -51 0 -31 16 -38 24 -10 8 24 -7 75 -24
80 -9 3 -11 -2 -7 -19z"/>
<path d="M3870 14899 c-109 -31 -201 -61 -197 -65 6 -6 243 54 267 67 21 12
-25 10 -70 -2z"/>
<path d="M4497 14878 c-3 -18 -8 -43 -12 -55 -5 -14 -3 -23 3 -23 15 0 29 27
37 73 6 29 4 37 -8 37 -9 0 -17 -13 -20 -32z"/>
<path d="M3609 14880 c13 -11 35 -20 50 -19 24 0 22 2 -14 19 -52 24 -66 24
-36 0z"/>
<path d="M3549 14860 c30 -26 69 -36 84 -21 8 8 5 11 -13 11 -14 1 -36 7 -50
15 -36 21 -49 18 -21 -5z"/>
<path d="M4555 14838 c-15 -38 -8 -59 12 -33 13 18 18 65 8 65 -3 0 -12 -15
-20 -32z"/>
<path d="M3976 14851 c-3 -5 1 -11 9 -15 8 -3 15 -17 15 -31 0 -14 5 -25 10
-25 11 0 13 39 4 64 -7 17 -29 21 -38 7z"/>
<path d="M4092 14829 c7 -20 13 -27 18 -19 11 17 0 50 -16 50 -10 0 -11 -6 -2
-31z"/>
<path d="M4180 14840 c0 -13 5 -20 13 -17 6 2 12 10 12 17 0 7 -6 15 -12 18
-8 2 -13 -5 -13 -18z"/>
<path d="M3860 14831 c0 -5 9 -11 20 -14 13 -3 22 -17 26 -36 7 -36 24 -42 24
-8 0 31 -27 67 -51 67 -10 0 -19 -4 -19 -9z"/>
<path d="M4235 14831 c-3 -5 -1 -12 5 -16 5 -3 10 1 10 9 0 18 -6 21 -15 7z"/>
<path d="M3756 14813 c-4 -4 8 -12 26 -19 20 -6 34 -19 38 -33 7 -29 24 -32
28 -5 5 36 -68 81 -92 57z"/>
<path d="M4590 14790 c-7 -17 -9 -34 -6 -38 10 -9 36 27 36 50 0 28 -16 21
-30 -12z"/>
<path d="M4627 14753 c-4 -3 -7 -16 -7 -27 1 -21 1 -21 15 -2 8 11 15 23 15
28 0 10 -14 11 -23 1z"/>
<path d="M4564 14696 c-9 -15 -14 -29 -11 -32 3 -3 13 6 23 20 9 15 14 29 11
32 -3 3 -13 -6 -23 -20z"/>
<path d="M4650 14704 c0 -8 5 -12 10 -9 6 3 10 10 10 16 0 5 -4 9 -10 9 -5 0
-10 -7 -10 -16z"/>
<path d="M4690 14670 c0 -5 5 -10 10 -10 6 0 10 5 10 10 0 6 -4 10 -10 10 -5
0 -10 -4 -10 -10z"/>
<path d="M3362 14600 c-33 -8 -60 -26 -51 -33 2 -3 22 -7 45 -9 45 -6 80 12
71 37 -7 16 -15 17 -65 5z"/>
<path d="M4926 14478 c-18 -25 -120 -163 -176 -237 -51 -69 1 -20 70 64 63 77
134 185 127 192 -3 2 -12 -6 -21 -19z"/>
<path d="M4963 14438 c-27 -31 -127 -177 -142 -208 -11 -22 -9 -22 14 5 22 26
129 178 149 213 11 19 1 14 -21 -10z"/>
<path d="M4962 14328 c-27 -40 -55 -84 -62 -98 -12 -23 -12 -24 3 -12 22 18
120 172 114 179 -3 2 -27 -28 -55 -69z"/>
<path d="M4995 14280 c-18 -34 -19 -44 -5 -35 16 10 42 65 31 65 -6 0 -17 -13
-26 -30z"/>
<path d="M2890 14017 c0 -8 10 -23 23 -35 31 -29 134 -75 153 -68 19 7 9 26
-15 26 -19 0 -134 66 -139 81 -5 14 -22 11 -22 -4z"/>
<path d="M4544 13524 c-122 -64 -164 -89 -164 -97 0 -5 24 5 53 21 28 16 78
44 110 61 49 28 66 41 53 41 -1 0 -25 -12 -52 -26z"/>
<path d="M4467 13421 c-48 -26 -93 -54 -100 -60 -14 -15 110 46 168 83 65 41
27 28 -68 -23z"/>
<path d="M4535 13396 c-11 -7 -64 -37 -118 -66 -54 -29 -96 -54 -94 -57 7 -6
178 84 212 112 32 26 32 34 0 11z"/>
<path d="M4452 13284 c-51 -23 -134 -74 -120 -74 10 0 161 79 172 90 13 13 10
12 -52 -16z"/>
<path d="M2824 14676 c-26 -12 -44 -33 -44 -52 0 -2 15 5 33 16 36 22 78 25
128 9 51 -17 66 -34 48 -55 -12 -14 -11 -16 5 -13 10 2 24 12 30 21 14 24 -14
53 -72 72 -55 19 -87 20 -128 2z"/>
<path d="M2742 14634 c10 -10 20 -15 24 -12 3 4 -5 12 -18 18 -22 12 -22 12
-6 -6z"/>
<path d="M4346 14573 c21 -60 17 -105 -16 -169 l-30 -59 29 32 c43 46 56 102
39 171 -7 31 -18 57 -24 59 -9 3 -8 -7 2 -34z"/>
<path d="M4208 14516 c4 -72 -18 -129 -64 -165 -31 -25 -89 -42 -111 -34 -11
4 -14 2 -9 -5 12 -19 68 -14 110 11 70 39 118 169 90 241 -13 33 -19 14 -16
-48z"/>
<path d="M4485 14564 c24 -59 34 -92 35 -120 0 -52 -28 -128 -64 -170 -44 -51
-136 -116 -169 -117 -31 -2 -25 -17 7 -17 50 0 182 114 216 187 34 73 22 222
-21 248 -9 6 -10 3 -4 -11z"/>
<path d="M4055 14525 c-30 -29 -33 -70 -5 -85 15 -8 24 -6 40 10 26 26 35 66
20 85 -17 21 -27 19 -55 -10z"/>
<path d="M4164 14235 c-10 -8 -14 -15 -8 -15 5 0 19 7 30 15 10 8 14 15 8 15
-5 0 -19 -7 -30 -15z"/>
<path d="M3157 14524 c-15 -15 -6 -24 23 -24 39 0 98 -24 128 -53 37 -34 52
-71 52 -129 0 -42 4 -56 20 -66 11 -7 20 -8 20 -3 0 6 -4 12 -9 15 -5 3 -7 23
-4 45 10 74 -34 154 -106 190 -41 21 -113 36 -124 25z"/>
<path d="M3210 11350 c0 -6 15 -23 33 -38 17 -15 69 -62 114 -104 73 -70 111
-95 101 -69 -4 14 -206 199 -229 211 -13 8 -19 7 -19 0z"/>
<path d="M2927 10750 c-47 -55 20 -183 86 -166 23 5 47 42 47 72 0 28 -31 75
-63 94 -40 25 -48 25 -70 0z m72 -35 c39 -33 47 -60 26 -91 -13 -20 -19 -23
-36 -14 -11 6 -28 25 -38 41 -15 25 -17 36 -8 60 14 35 18 36 56 4z"/>
<path d="M2367 15183 c-4 -3 -6 -25 -6 -47 l2 -41 7 45 c8 48 7 54 -3 43z"/>
<path d="M2412 15168 c-12 -16 -43 -90 -39 -94 2 -2 17 21 35 51 28 49 31 75
4 43z"/>
<path d="M2322 15120 c0 -19 2 -27 5 -17 2 9 2 25 0 35 -3 9 -5 1 -5 -18z"/>
<path d="M2440 15118 c-11 -18 -20 -40 -20 -48 1 -15 50 57 50 73 0 15 -11 6
-30 -25z"/>
<path d="M2480 15121 c-20 -38 -30 -72 -20 -66 16 10 52 85 41 85 -6 0 -15 -9
-21 -19z"/>
<path d="M2280 15103 c0 -14 3 -23 7 -19 10 10 11 46 1 46 -4 0 -8 -12 -8 -27z"/>
<path d="M2491 15076 c-28 -65 -22 -84 8 -23 12 26 21 53 18 59 -2 7 -14 -9
-26 -36z"/>
<path d="M2220 15077 c0 -7 7 -22 16 -33 15 -19 16 -19 9 1 -4 11 -8 26 -8 33
0 16 -17 16 -17 -1z"/>
<path d="M1938 14870 c-94 -50 -130 -174 -80 -275 29 -58 85 -126 130 -157 60
-41 205 -87 188 -59 -3 4 -19 11 -36 14 -99 20 -209 111 -255 210 -39 83 -31
153 23 211 57 60 134 71 220 31 64 -29 69 -30 51 -8 -43 51 -172 69 -241 33z"/>
<path d="M1940 14800 c20 -13 43 -13 35 0 -3 6 -16 10 -28 10 -18 0 -19 -2 -7
-10z"/>
<path d="M2027 14788 c-11 -6 -17 -22 -17 -48 0 -30 6 -43 31 -64 53 -45 109
-47 149 -4 23 25 36 80 24 105 -5 14 -9 8 -14 -22 -12 -77 -41 -103 -99 -90
-44 9 -71 40 -71 81 0 29 3 35 16 30 38 -15 67 -19 61 -8 -12 17 -62 31 -80
20z"/>
<path d="M1928 14753 c7 -3 16 -2 19 1 4 3 -2 6 -13 5 -11 0 -14 -3 -6 -6z"/>
<path d="M1915 14730 c-3 -5 1 -10 9 -10 8 0 18 5 21 10 3 6 -1 10 -9 10 -8 0
-18 -4 -21 -10z"/>
<path d="M1924 14685 c-10 -8 -14 -15 -7 -15 19 0 43 11 43 21 0 13 -14 11
-36 -6z"/>
<path d="M1940 14660 c-8 -5 -11 -12 -7 -16 4 -4 15 0 24 9 18 18 8 23 -17 7z"/>
<path d="M2273 14608 c-14 -18 -43 -75 -43 -85 0 -4 14 14 31 40 18 26 30 50
27 53 -3 2 -10 -1 -15 -8z"/>
<path d="M1945 14600 c3 -5 12 -7 20 -3 21 7 19 13 -6 13 -11 0 -18 -4 -14
-10z"/>
<path d="M2305 14555 c-14 -25 -25 -52 -23 -60 2 -8 18 13 35 46 38 69 28 81
-12 14z"/>
<path d="M1980 14569 c0 -5 5 -7 10 -4 6 3 10 8 10 11 0 2 -4 4 -10 4 -5 0
-10 -5 -10 -11z"/>
<path d="M2363 14524 c-35 -76 -22 -80 16 -5 17 34 26 61 21 61 -6 0 -23 -25
-37 -56z"/>
<path d="M2416 14482 c-15 -30 -25 -59 -23 -65 2 -7 16 12 31 41 15 30 25 59
23 65 -2 7 -16 -12 -31 -41z"/>
<path d="M2472 14446 c-6 -22 -10 -42 -8 -44 9 -8 27 40 24 61 -3 17 -7 14
-16 -17z"/>
<path d="M2180 14421 c84 -45 282 -82 500 -95 134 -8 71 9 -110 29 -146 16
-268 40 -349 69 -59 22 -84 19 -41 -3z"/>
<path d="M2528 14434 c-5 -4 -8 -19 -8 -33 0 -18 3 -22 11 -14 6 6 9 21 7 33
-1 12 -6 18 -10 14z"/>
<path d="M2580 14406 c0 -11 33 -36 48 -36 13 0 11 5 -8 20 -24 19 -40 25 -40
16z"/>
<path d="M5366 12250 c-81 -41 -150 -96 -243 -193 -77 -81 -181 -222 -171
-232 3 -3 18 14 33 37 100 152 266 313 387 374 53 27 62 29 52 13 -4 -7 -1
-10 7 -7 16 5 19 30 4 35 -5 1 -37 -11 -69 -27z"/>
<path d="M2485 12180 c-21 -8 -53 -40 -41 -40 10 0 86 40 86 45 0 7 -22 5 -45
-5z"/>
<path d="M3020 11435 c0 -8 61 -37 67 -31 3 2 -9 12 -26 20 -31 17 -41 19 -41
11z"/>
<path d="M2980 11425 c0 -8 142 -76 147 -71 3 2 -12 13 -34 24 -53 27 -113 52
-113 47z"/>
<path d="M4595 10280 c10 -11 22 -20 27 -20 5 0 4 9 -2 20 -6 11 -18 20 -27
20 -14 0 -14 -2 2 -20z"/>
</g>
</svg>
